<?xml version="1.0" standalone="no"?>
<!DOCTYPE svg PUBLIC "-//W3C//DTD SVG 20010904//EN"
 "http://www.w3.org/TR/2001/REC-SVG-20010904/DTD/svg10.dtd">
<svg version="1.0" xmlns="http://www.w3.org/2000/svg"
 width="260.000000pt" height="260.000000pt" viewBox="0 0 260.000000 260.000000"
 preserveAspectRatio="xMidYMid meet">
<metadata>
Created by potrace 1.14, written by Peter Selinger 2001-2017
</metadata>
<g transform="translate(0.000000,260.000000) scale(0.100000,-0.100000)"
fill="#000000" stroke="none">
<path d="M1188 2375 c-2 -2 -25 -6 -53 -9 -126 -17 -289 -81 -420 -167 -234
-152 -423 -443 -460 -709 -3 -25 -8 -54 -10 -65 -2 -11 -4 -33 -4 -50 -1 -22
-4 -26 -13 -17 -19 19 -56 14 -68 -9 -16 -29 13 -62 49 -55 14 3 53 8 86 11
33 3 71 8 85 10 27 5 95 12 180 20 30 3 75 7 100 10 25 3 83 7 130 11 47 3
103 7 125 9 58 5 654 5 760 0 123 -6 363 -24 405 -30 14 -2 54 -7 89 -10 36
-3 67 -8 71 -10 3 -2 26 -6 50 -10 25 -3 62 -11 82 -16 26 -7 44 -6 58 1 41
22 13 78 -34 66 -23 -6 -24 -3 -30 64 -4 38 -7 72 -7 75 0 19 -51 182 -74 235
-138 327 -425 558 -785 631 -49 10 -304 21 -312 14z"/>
<path d="M1166 1312 l-98 -3 7 -202 c6 -182 10 -272 14 -318 1 -13 12 -15 57
-13 31 1 59 6 62 9 4 4 7 34 7 68 l0 62 108 0 107 0 0 62 0 62 -72 0 c-40 0
-90 0 -110 0 l-38 1 0 75 0 75 58 1 c31 0 92 1 136 2 l79 2 3 58 c3 48 1 57
-14 58 -58 3 -222 4 -306 1z"/>
<path d="M1569 1258 c0 -29 -2 -89 -4 -133 -14 -302 -14 -365 3 -366 10 0 55
-3 102 -5 248 -13 317 -8 375 30 45 29 82 92 94 158 32 175 10 249 -88 301
-73 39 -143 51 -373 63 l-108 5 -1 -53z m362 -98 c21 -6 48 -19 61 -29 20 -17
23 -27 22 -93 0 -81 -15 -121 -56 -151 -23 -17 -41 -20 -130 -18 -151 2 -142
-3 -139 67 2 32 5 75 6 94 2 19 4 62 4 94 l1 59 97 -7 c54 -4 114 -11 134 -16z"/>
<path d="M680 1284 c-8 -1 -50 -6 -93 -9 l-78 -7 6 -51 c4 -29 8 -63 10 -77 2
-14 6 -52 10 -85 3 -33 8 -71 10 -85 2 -14 6 -54 10 -90 4 -36 10 -83 13 -105
8 -42 13 -44 87 -30 11 2 25 4 32 4 8 1 10 21 6 71 l-5 70 38 1 c113 2 189 41
224 114 24 49 28 124 10 170 -28 74 -100 115 -200 114 -36 -1 -72 -3 -80 -5z
m137 -133 c20 -24 25 -46 17 -84 -7 -35 -33 -48 -106 -54 l-58 -5 -1 38 c0 22
-2 55 -4 74 -2 19 0 37 5 40 4 3 36 6 69 8 50 2 63 -1 78 -17z"/>
<path d="M1436 722 c-4 -4 -110 -8 -234 -9 -243 -2 -331 -6 -457 -22 -44 -6
-111 -13 -150 -16 -84 -5 -145 -12 -243 -27 -77 -12 -99 -29 -87 -68 13 -42
85 -33 85 10 0 14 14 19 73 27 39 6 74 6 75 1 8 -19 117 -120 182 -169 83 -62
246 -140 345 -166 134 -34 331 -42 469 -18 212 37 415 145 571 302 l54 54 58
-10 c31 -6 58 -11 60 -11 2 0 2 -4 -1 -8 -6 -9 2 -22 26 -40 25 -20 58 1 58
37 0 43 -13 49 -141 65 -15 2 -31 6 -37 9 -5 4 -31 9 -58 12 -96 9 -150 16
-189 22 -53 9 -81 11 -273 17 -89 3 -166 8 -171 10 -4 3 -11 2 -15 -2z"/>
</g>
</svg>
